<?xml version="1.0" standalone="no"?>
<!DOCTYPE svg PUBLIC "-//W3C//DTD SVG 20010904//EN"
 "http://www.w3.org/TR/2001/REC-SVG-20010904/DTD/svg10.dtd">
<svg version="1.0" xmlns="http://www.w3.org/2000/svg"
 width="360.000000pt" height="360.000000pt" viewBox="0 0 360.000000 360.000000"
 preserveAspectRatio="xMidYMid meet">

<g transform="translate(0.000000,360.000000) scale(0.100000,-0.100000)"
fill="#000000" stroke="none">
<path d="M1152 3182 c-183 -65 -277 -348 -212 -633 62 -271 242 -453 429 -436
73 6 126 33 180 92 87 94 126 231 118 410 -7 139 -34 245 -89 342 -110 192
-274 279 -426 225z"/>
<path d="M2273 3181 c-136 -47 -242 -175 -303 -366 -31 -96 -39 -301 -16 -398
20 -86 56 -157 109 -214 64 -69 107 -88 202 -87 96 0 135 17 222 98 73 67 118
143 161 265 28 80 34 116 39 211 6 132 -3 187 -49 298 -71 172 -212 246 -365
193z"/>
<path d="M495 2338 c-77 -27 -135 -94 -172 -200 -22 -60 -26 -92 -27 -178 0
-91 4 -118 32 -206 107 -340 387 -484 564 -292 89 97 122 296 77 471 -35 139
-94 242 -186 328 -80 75 -201 107 -288 77z"/>
<path d="M2937 2330 c-95 -37 -178 -120 -241 -240 -46 -87 -65 -164 -72 -285
-13 -218 65 -374 210 -419 55 -18 61 -18 122 -1 141 38 248 152 314 332 73
202 50 427 -55 552 -63 74 -180 100 -278 61z"/>
<path d="M1685 2040 c-86 -14 -151 -37 -209 -74 -107 -70 -160 -136 -268 -341
-41 -77 -83 -153 -93 -170 -32 -49 -95 -114 -175 -177 -112 -89 -209 -187
-235 -238 -83 -162 -44 -436 76 -545 90 -81 196 -116 370 -122 118 -5 152 -2
270 21 211 40 256 46 384 46 127 0 170 -5 385 -46 117 -23 153 -26 270 -21
122 4 143 8 218 37 186 72 264 194 264 414 0 204 -34 259 -298 476 -106 87
-149 141 -211 265 -149 296 -252 407 -423 454 -85 24 -241 34 -325 21z"/>
</g>
</svg>
