<?xml version="1.0" standalone="no"?>
<!DOCTYPE svg PUBLIC "-//W3C//DTD SVG 20010904//EN"
 "http://www.w3.org/TR/2001/REC-SVG-20010904/DTD/svg10.dtd">
<svg version="1.0" xmlns="http://www.w3.org/2000/svg"
 width="360.000000pt" height="360.000000pt" viewBox="0 0 360.000000 360.000000"
 preserveAspectRatio="xMidYMid meet">

<g transform="translate(0.000000,360.000000) scale(0.100000,-0.100000)"
fill="#000000" stroke="none">
<path d="M1282 3298 c-18 -22 -54 -110 -66 -162 -10 -45 -15 -51 -46 -59 -93
-24 -174 -122 -222 -268 -29 -90 -30 -100 -25 -219 4 -105 10 -140 36 -219 35
-104 102 -216 165 -274 99 -92 226 -121 328 -75 101 46 171 145 204 285 20 85
14 289 -10 378 -30 108 -85 204 -161 281 -38 39 -83 77 -100 85 -27 13 -31 21
-46 104 -21 112 -41 162 -57 143z"/>
<path d="M2296 3261 c-8 -27 -17 -72 -21 -98 -11 -87 -14 -92 -68 -126 -73
-47 -142 -127 -186 -216 -51 -101 -71 -183 -77 -316 -9 -178 30 -315 117 -410
160 -173 391 -109 537 148 65 115 86 204 86 372 1 128 -2 147 -27 219 -45 127
-128 220 -217 243 -31 8 -35 14 -42 51 -8 49 -54 157 -74 173 -10 8 -16 0 -28
-40z"/>
<path d="M3038 2422 c-8 -21 -25 -72 -38 -114 -20 -63 -29 -78 -48 -83 -33 -8
-100 -52 -145 -94 -140 -131 -221 -420 -172 -607 46 -175 131 -257 265 -258
157 0 301 139 378 364 31 93 35 117 36 210 1 85 -3 118 -22 172 -29 84 -72
148 -122 183 -30 21 -41 36 -45 64 -10 57 -44 164 -59 183 -12 16 -14 14 -28
-20z"/>
<path d="M534 2418 c-21 -40 -44 -124 -44 -160 0 -20 -11 -35 -45 -59 -146
-105 -190 -356 -104 -593 73 -202 219 -338 364 -339 88 -1 127 16 183 79 73
82 97 158 97 309 -1 140 -17 214 -73 325 -47 95 -144 195 -223 232 l-56 27
-34 105 c-18 58 -36 106 -41 106 -4 0 -15 -15 -24 -32z"/>
<path d="M1690 1930 c-129 -18 -255 -89 -342 -192 -41 -48 -138 -207 -138
-224 0 -4 -25 -51 -55 -104 -36 -64 -78 -120 -125 -167 -38 -40 -70 -69 -70
-66 0 10 -86 -63 -160 -137 -43 -42 -86 -96 -99 -121 -38 -81 -46 -258 -15
-374 20 -77 86 -163 162 -209 97 -58 155 -71 337 -71 156 0 222 8 421 50 78
17 281 20 364 5 30 -5 105 -19 165 -30 157 -31 358 -37 465 -16 95 20 198 73
247 130 104 118 133 359 63 511 -26 55 -123 157 -235 246 -142 113 -159 136
-295 394 -107 202 -205 297 -360 349 -87 28 -229 40 -330 26z"/>
</g>
</svg>
